<svg xmlns="http://www.w3.org/2000/svg" viewBox="0 0 900 1100" width="900" height="1100">
  <defs>
    <linearGradient id="bg" x1="0%" y1="0%" x2="100%" y2="100%">
      <stop offset="0%" stop-color="#20222e"/>
      <stop offset="100%" stop-color="#c2575b"/>
    </linearGradient>
    <linearGradient id="screen" x1="0%" y1="0%" x2="0%" y2="100%">
      <stop offset="0%" stop-color="#f3f3f4"/>
      <stop offset="100%" stop-color="#e3e4e6"/>
    </linearGradient>
  </defs>

  <rect width="900" height="1100" fill="url(#bg)"/>
  <circle cx="760" cy="140" r="220" fill="#ffffff" opacity="0.06"/>
  <circle cx="120" cy="960" r="180" fill="#ffffff" opacity="0.07"/>

  <!-- device frame -->
  <rect x="150" y="140" width="600" height="820" rx="40" fill="#14151c" opacity="0.9"/>
  <rect x="178" y="180" width="544" height="700" rx="18" fill="url(#screen)"/>

  <!-- dashboard header -->
  <rect x="206" y="212" width="120" height="14" rx="7" fill="#c2575b" opacity="0.8"/>
  <rect x="206" y="238" width="180" height="10" rx="5" fill="#9a9ba3"/>
  <circle cx="672" cy="230" r="14" fill="#c2575b" opacity="0.5"/>

  <!-- stat cards -->
  <rect x="206" y="284" width="150" height="90" rx="14" fill="#ffffff"/>
  <rect x="222" y="302" width="60" height="10" rx="5" fill="#c2575b"/>
  <rect x="222" y="324" width="90" height="16" rx="6" fill="#2a2b33"/>
  <rect x="222" y="348" width="70" height="8" rx="4" fill="#b9bac1"/>

  <rect x="374" y="284" width="150" height="90" rx="14" fill="#ffffff"/>
  <rect x="390" y="302" width="60" height="10" rx="5" fill="#5b7dc2"/>
  <rect x="390" y="324" width="90" height="16" rx="6" fill="#2a2b33"/>
  <rect x="390" y="348" width="70" height="8" rx="4" fill="#b9bac1"/>

  <rect x="542" y="284" width="180" height="90" rx="14" fill="#ffffff"/>
  <rect x="558" y="302" width="60" height="10" rx="5" fill="#5bc296"/>
  <rect x="558" y="324" width="110" height="16" rx="6" fill="#2a2b33"/>
  <rect x="558" y="348" width="90" height="8" rx="4" fill="#b9bac1"/>

  <!-- chart panel -->
  <rect x="206" y="398" width="516" height="220" rx="18" fill="#ffffff"/>
  <polyline points="230,560 300,520 360,540 420,470 480,500 540,430 600,460 660,400 696,420"
            fill="none" stroke="#c2575b" stroke-width="6" stroke-linecap="round" stroke-linejoin="round"/>
  <polyline points="230,560 300,520 360,540 420,470 480,500 540,430 600,460 660,400 696,420 696,600 230,600"
            fill="#c2575b" opacity="0.08" stroke="none"/>

  <!-- list rows -->
  <rect x="206" y="642" width="516" height="64" rx="14" fill="#ffffff"/>
  <circle cx="238" cy="674" r="14" fill="#5b7dc2" opacity="0.7"/>
  <rect x="266" y="662" width="200" height="10" rx="5" fill="#2a2b33"/>
  <rect x="266" y="680" width="130" height="8" rx="4" fill="#b9bac1"/>
  <rect x="640" y="664" width="60" height="20" rx="10" fill="#5bc296" opacity="0.25"/>

  <rect x="206" y="718" width="516" height="64" rx="14" fill="#ffffff"/>
  <circle cx="238" cy="750" r="14" fill="#c2575b" opacity="0.7"/>
  <rect x="266" y="738" width="220" height="10" rx="5" fill="#2a2b33"/>
  <rect x="266" y="756" width="150" height="8" rx="4" fill="#b9bac1"/>
  <rect x="640" y="740" width="60" height="20" rx="10" fill="#5b7dc2" opacity="0.25"/>

  <rect x="206" y="794" width="516" height="64" rx="14" fill="#ffffff"/>
  <circle cx="238" cy="826" r="14" fill="#5bc296" opacity="0.7"/>
  <rect x="266" y="814" width="190" height="10" rx="5" fill="#2a2b33"/>
  <rect x="266" y="832" width="120" height="8" rx="4" fill="#b9bac1"/>
  <rect x="640" y="816" width="60" height="20" rx="10" fill="#c2575b" opacity="0.25"/>
</svg>
